<?xml version="1.0" encoding="utf-8"?>
<!-- Generator: Adobe Illustrator 25.4.4, SVG Export Plug-In . SVG Version: 6.00 Build 0)  -->
<svg version="1.1" id="Layer_1" xmlns:serif="http://www.serif.com/"
	 xmlns="http://www.w3.org/2000/svg" xmlns:xlink="http://www.w3.org/1999/xlink" x="0px" y="0px" viewBox="0 0 2253 2253"
	 style="enable-background:new 0 0 2253 2253;" xml:space="preserve">
<style type="text/css">
	.st0{fill:none;}
	
		.st1{fill-rule:evenodd;clip-rule:evenodd;fill:#8DA0CB;stroke:#202020;stroke-width:66.67;stroke-linecap:round;stroke-linejoin:round;stroke-miterlimit:1.5;}
	
		.st2{fill-rule:evenodd;clip-rule:evenodd;fill:#66C2A5;stroke:#202020;stroke-width:66.67;stroke-linecap:round;stroke-linejoin:round;stroke-miterlimit:1.5;}
	
		.st3{fill-rule:evenodd;clip-rule:evenodd;fill:#FC8D62;stroke:#202020;stroke-width:66.67;stroke-linecap:round;stroke-linejoin:round;stroke-miterlimit:1.5;}
	
		.st4{fill-rule:evenodd;clip-rule:evenodd;fill:#EEEEEE;stroke:#202020;stroke-width:66.67;stroke-linecap:round;stroke-linejoin:round;stroke-miterlimit:1.5;}
</style>
<rect id="Heatmap" x="2" y="1.5" class="st0" width="2250" height="2250"/>
<rect x="135.3" y="134.8" class="st1" width="495.8" height="495.8"/>
<rect x="631.2" y="134.8" class="st1" width="495.8" height="495.8"/>
<rect x="1127" y="134.8" class="st1" width="495.8" height="495.8"/>
<rect x="1622.8" y="134.8" class="st2" width="495.8" height="495.8"/>
<rect x="135.3" y="630.7" class="st1" width="495.8" height="495.8"/>
<rect x="135.3" y="1126.5" class="st3" width="495.8" height="495.8"/>
<rect x="135.3" y="1622.3" class="st3" width="495.8" height="495.8"/>
<rect x="631.2" y="630.7" class="st1" width="495.8" height="495.8"/>
<rect x="631.2" y="1126.5" class="st3" width="495.8" height="495.8"/>
<rect x="631.2" y="1622.3" class="st4" width="495.8" height="495.8"/>
<rect x="1127" y="630.7" class="st3" width="495.8" height="495.8"/>
<rect x="1127" y="1126.5" class="st4" width="495.8" height="495.8"/>
<rect x="1127" y="1622.3" class="st4" width="495.8" height="495.8"/>
<rect x="1622.8" y="630.7" class="st2" width="495.8" height="495.8"/>
<rect x="1622.8" y="1126.5" class="st2" width="495.8" height="495.8"/>
<rect x="1622.8" y="1622.3" class="st2" width="495.8" height="495.8"/>
</svg>
